<svg xmlns="http://www.w3.org/2000/svg" enable-background="new 0 0 1080 1080" viewBox="0 0 1080 1080"><path fill="#febb50" d="M919.4,251.1v436.8c-18.7-91.1-98.6-159.8-195.9-159.8c-20,0-38.7,2.5-56.2,8.7C584.9,561.8,525,638,525,727.8
		c0,48.7,17.5,92.4,46.2,127.3l-2.5,1.2H301.6c-12.5,0-23.7-5-31.2-12.5l-99.8-99.8c-8.7-8.7-12.5-20-12.5-31.2V251.1
		c0-11.2,8.7-20,20-20h93.6v26.2c0,20,16.2,34.9,34.9,34.9c18.7,0,34.9-15,34.9-34.9v-26.2h395.6v26.2c0,20,15,34.9,34.9,34.9
		c20,0,34.9-15,34.9-34.9v-26.2h93.6C910.7,231.1,919.4,239.8,919.4,251.1z"/><path fill="#e5f4f7" d="M290.4 417.1v43.7c0 7.5-6.2 13.7-13.7 13.7H233c-7.5 0-13.7-6.2-13.7-13.7v-43.7c0-7.5 6.2-13.7 13.7-13.7h43.7C284.1 403.3 290.4 409.6 290.4 417.1zM290.4 558.1v43.7c0 7.5-6.2 13.7-13.7 13.7H233c-7.5 0-13.7-6.2-13.7-13.7v-43.7c0-7.5 6.2-13.7 13.7-13.7h43.7C284.1 544.4 290.4 550.6 290.4 558.1zM432.7 417.1v43.7c0 7.5-6.2 13.7-13.7 13.7h-43.7c-7.5 0-13.7-6.2-13.7-13.7v-43.7c0-7.5 6.2-13.7 13.7-13.7h43.7C426.4 403.3 432.7 409.6 432.7 417.1zM432.7 558.1v43.7c0 7.5-6.2 13.7-13.7 13.7h-43.7c-7.5 0-13.7-6.2-13.7-13.7v-43.7c0-7.5 6.2-13.7 13.7-13.7h43.7C426.4 544.4 432.7 550.6 432.7 558.1zM432.7 699.1v43.7c0 7.5-6.2 13.7-13.7 13.7h-43.7c-7.5 0-13.7-6.2-13.7-13.7v-43.7c0-7.5 6.2-13.7 13.7-13.7h43.7C426.4 685.4 432.7 691.6 432.7 699.1zM573.7 417.1v43.7c0 7.5-6.2 13.7-13.7 13.7h-43.7c-7.5 0-13.7-6.2-13.7-13.7v-43.7c0-7.5 6.2-13.7 13.7-13.7H560C567.5 403.3 573.7 409.6 573.7 417.1zM714.7 417.1v43.7c0 7.5-6.2 13.7-13.7 13.7h-43.7c-7.5 0-13.7-6.2-13.7-13.7v-43.7c0-7.5 6.2-13.7 13.7-13.7H701C708.5 403.3 714.7 409.6 714.7 417.1zM855.8 417.1v43.7c0 7.5-6.2 13.7-13.7 13.7h-43.7c-7.5 0-13.7-6.2-13.7-13.7v-43.7c0-7.5 6.2-13.7 13.7-13.7H842C849.5 403.3 855.8 409.6 855.8 417.1z"/><path fill="#9fe7ff" d="M923.2,727.8c0,36.2-10,69.9-26.2,98.6c-34.9,59.9-98.6,101.1-173.5,101.1c-61.2,0-117.3-27.5-153.5-72.4
		c-28.7-34.9-46.2-78.6-46.2-127.3c0-89.9,59.9-166,142.3-191c17.5-5,37.4-8.7,56.2-8.7c96.1,0,177.2,68.6,195.9,159.8l0,0
		C921.9,700.4,923.2,714.1,923.2,727.8z"/><path fill="#fb545c" d="M340.3 187.4v69.9c0 20-15 34.9-34.9 34.9s-34.9-15-34.9-34.9v-69.9c0-18.7 16.2-34.9 34.9-34.9 10 0 18.7 3.7 25 10C336.6 168.7 340.3 177.4 340.3 187.4zM805.8 187.4v69.9c0 20-15 34.9-34.9 34.9-18.7 0-34.9-15-34.9-34.9v-69.9c0-18.7 15-34.9 34.9-34.9 10 0 18.7 3.7 25 10C802.1 168.7 805.8 177.4 805.8 187.4z"/><path d="M145.6,342.4v370.4c0,4.2,0.5,8.2,1.3,12.2c0,0.1-0.1,0.2-0.1,0.3c0,2.4,0.9,4.5,2,6.4c2.7,7.9,6.9,15.2,12.8,21.1
		l99.8,99.8c10.3,10.3,24.8,16.1,40,16.1h263.9C604.9,914,661.9,940,723.5,940c76.2,0,145.1-40.1,184.3-107.4
		c18.2-32.2,27.8-68.4,27.8-104.7c0-14.8-1.5-27.4-4.1-37.9c0.1-0.7,0.4-1.3,0.4-2V251.1c0-17.9-14-32.5-31.2-32.5h-82.4v-31.2
		c0-13-4.8-25-13.6-33.8c-8.8-8.8-20.8-13.6-33.8-13.6c-26.2,0-47.4,21.3-47.4,47.4v31.2H352.8v-31.2c0-13-4.8-25-13.6-33.8
		c-8.8-8.8-20.8-13.6-33.8-13.6c-25.7,0-47.4,21.7-47.4,47.4v31.2h-79.9c-18.2,0-32.5,14.3-32.5,32.5v80.9c-0.8,1.6-1.2,3.4-1.2,5.3
		C144.4,339.1,144.9,340.8,145.6,342.4z M182,737.8h90.9v90.9L182,737.8z M297.9,843.6V725.3c0-6.9-5.6-12.5-12.5-12.5H170.6V349.7
		h736.4v271.4c-37.4-63.7-106.7-105.4-183.5-105.4c-0.2,0-0.5,0-0.7,0c-0.2,0-0.4,0-0.6,0c-0.9,0-1.9,0.1-2.8,0.1
		c-17.8,0.3-33.7,2.6-47.9,6.8c-3.1,0.8-6.3,1.6-9,2.4C572,552.3,511.3,633.9,511.3,727.8c0,41.6,12.2,81.3,35.1,116.1H301.6
		C300.4,843.9,299.1,843.7,297.9,843.6z M886.2,820.1c-34.7,59.4-95.5,94.9-162.7,94.9c-55.3,0-106.3-23.6-141.1-64.7
		c-0.5-1.1-0.8-2.2-1.5-3.1c-28.4-34.5-43.3-75.8-43.3-119.4c0-81.6,54.9-155.2,134-179.2c2.2-0.8,4.6-1.4,7-2.1
		c11.8-2.9,26.4-5.5,41.3-5.8c1,0,2-0.1,3-0.1c88.4,0.3,165.4,63.2,183.4,150.8c3,10,4.5,21.9,4.5,36.4
		C910.7,759.9,902.2,791.8,886.2,820.1z M770.9,165c6.3,0,12.1,2.2,16.1,6.3c4.1,4.1,6.3,9.8,6.3,16.1v69.9
		c0,12.8-9.2,22.1-21.8,22.4c-12.7-0.3-21.8-9.6-21.8-22.4v-26.2c0-1.9-0.5-3.6-1.2-5.3v-38.4C748.4,175,758.5,165,770.9,165z
		 M305.4,165c6.3,0,12.1,2.2,16.1,6.3c4.1,4.1,6.3,9.8,6.3,16.1v69.9c0,12.8-9.1,22.1-21.8,22.4c-12.1-0.3-21.9-10.2-21.9-22.4
		v-26.2c0-1.9-0.5-3.6-1.2-5.3v-38.4C282.9,175.7,293.6,165,305.4,165z M178.1,243.6h79.9v13.7c0,27,20.4,47.4,47.4,47.4
		c0.2,0,0.4-0.1,0.6-0.1c0.2,0,0.4,0.1,0.6,0.1c26.1,0,47.4-21.3,47.4-47.4v-13.7h369.4v13.7c0,26.1,21.3,47.4,47.4,47.4
		c0.2,0,0.4-0.1,0.6-0.1c0.2,0,0.4,0.1,0.6,0.1c27,0,47.4-20.4,47.4-47.4v-13.7h81.1c2.9,0,6.2,3.1,6.2,7.5v73.6H170.6v-73.6
		C170.6,246.7,173.7,243.6,178.1,243.6z"/><path d="M276.7 390.9H233c-14.5 0-26.2 11.8-26.2 26.2v43.7c0 14.5 11.8 26.2 26.2 26.2h43.7c14.5 0 26.2-11.8 26.2-26.2v-43.7C302.9 402.6 291.1 390.9 276.7 390.9zM277.9 460.7c0 .6-.7 1.2-1.2 1.2H233c-.6 0-1.2-.7-1.2-1.2v-43.7c0-.6.7-1.2 1.2-1.2h43.7c.6 0 1.2.7 1.2 1.2V460.7zM276.7 531.9H233c-14.5 0-26.2 11.8-26.2 26.2v43.7c0 14.4 11.8 26.2 26.2 26.2h43.7c14.5 0 26.2-11.8 26.2-26.2v-43.7C302.9 543.6 291.1 531.9 276.7 531.9zM277.9 601.8c0 .6-.7 1.2-1.2 1.2H233c-.6 0-1.2-.7-1.2-1.2v-43.7c0-.6.7-1.2 1.2-1.2h43.7c.6 0 1.2.7 1.2 1.2V601.8zM418.9 390.9h-43.7c-14.5 0-26.2 11.8-26.2 26.2v43.7c0 14.5 11.8 26.2 26.2 26.2h43.7c14.5 0 26.2-11.8 26.2-26.2v-43.7C445.1 402.6 433.4 390.9 418.9 390.9zM420.2 460.7c0 .6-.7 1.2-1.2 1.2h-43.7c-.6 0-1.2-.7-1.2-1.2v-43.7c0-.6.7-1.2 1.2-1.2h43.7c.6 0 1.2.7 1.2 1.2V460.7zM418.9 531.9h-43.7c-14.5 0-26.2 11.8-26.2 26.2v43.7c0 14.4 11.8 26.2 26.2 26.2h43.7c14.5 0 26.2-11.8 26.2-26.2v-43.7C445.1 543.6 433.4 531.9 418.9 531.9zM420.2 601.8c0 .6-.7 1.2-1.2 1.2h-43.7c-.6 0-1.2-.7-1.2-1.2v-43.7c0-.6.7-1.2 1.2-1.2h43.7c.6 0 1.2.7 1.2 1.2V601.8zM418.9 672.9h-43.7c-14.5 0-26.2 11.8-26.2 26.2v43.7c0 14.5 11.8 26.2 26.2 26.2h43.7c14.5 0 26.2-11.8 26.2-26.2v-43.7C445.1 684.7 433.4 672.9 418.9 672.9zM420.2 742.8c0 .6-.7 1.2-1.2 1.2h-43.7c-.6 0-1.2-.7-1.2-1.2v-43.7c0-.6.7-1.2 1.2-1.2h43.7c.6 0 1.2.7 1.2 1.2V742.8zM560 487c14.5 0 26.2-11.8 26.2-26.2v-43.7c0-14.5-11.8-26.2-26.2-26.2h-43.7c-14.4 0-26.2 11.8-26.2 26.2v43.7c0 14.5 11.8 26.2 26.2 26.2H560zM515 460.7v-43.7c0-.6.7-1.2 1.2-1.2H560c.6 0 1.2.7 1.2 1.2v43.7c0 .6-.7 1.2-1.2 1.2h-43.7C515.7 462 515 461.3 515 460.7zM657.3 487H701c14.5 0 26.2-11.8 26.2-26.2v-43.7c0-14.5-11.8-26.2-26.2-26.2h-43.7c-14.5 0-26.2 11.8-26.2 26.2v43.7C631.1 475.2 642.9 487 657.3 487zM656.1 417.1c0-.6.7-1.2 1.2-1.2H701c.6 0 1.2.7 1.2 1.2v43.7c0 .6-.7 1.2-1.2 1.2h-43.7c-.6 0-1.2-.7-1.2-1.2V417.1zM798.3 487H842c14.5 0 26.2-11.8 26.2-26.2v-43.7c0-14.5-11.8-26.2-26.2-26.2h-43.7c-14.5 0-26.2 11.8-26.2 26.2v43.7C772.1 475.2 783.9 487 798.3 487zM797.1 417.1c0-.6.7-1.2 1.2-1.2H842c.6 0 1.2.7 1.2 1.2v43.7c0 .6-.7 1.2-1.2 1.2h-43.7c-.6 0-1.2-.7-1.2-1.2V417.1zM723.5 616.8c6.9 0 12.5-5.6 12.5-12.5v-25c0-6.9-5.6-12.5-12.5-12.5-6.9 0-12.5 5.6-12.5 12.5v25C711 611.2 716.6 616.8 723.5 616.8zM723.5 837.7c-6.9 0-12.5 5.6-12.5 12.5v25c0 6.9 5.6 12.5 12.5 12.5 6.9 0 12.5-5.6 12.5-12.5v-25C735.9 843.3 730.4 837.7 723.5 837.7zM810.8 652.9c3.2 0 6.4-1.2 8.8-3.7l17.5-17.5c4.9-4.9 4.9-12.8 0-17.6-4.9-4.9-12.8-4.9-17.6 0L802 631.6c-4.9 4.9-4.9 12.8 0 17.6C804.4 651.7 807.6 652.9 810.8 652.9zM628.5 805.1l-17.5 17.5c-4.9 4.9-4.9 12.8 0 17.6 2.4 2.4 5.6 3.7 8.8 3.7 3.2 0 6.4-1.2 8.8-3.7l17.5-17.5c4.9-4.9 4.9-12.8 0-17.6C641.3 800.3 633.4 800.3 628.5 805.1zM872 715.3h-25c-6.9 0-12.5 5.6-12.5 12.5 0 6.9 5.6 12.5 12.5 12.5h25c6.9 0 12.5-5.6 12.5-12.5C884.5 720.9 878.9 715.3 872 715.3zM613.6 727.8c0-6.9-5.6-12.5-12.5-12.5h-25c-6.9 0-12.5 5.6-12.5 12.5 0 6.9 5.6 12.5 12.5 12.5h25C608 740.3 613.6 734.7 613.6 727.8zM819.7 805.1c-4.9-4.9-12.8-4.9-17.6 0-4.9 4.9-4.9 12.8 0 17.6l17.5 17.5c2.4 2.4 5.6 3.7 8.8 3.7 3.2 0 6.4-1.2 8.8-3.7 4.9-4.9 4.9-12.8 0-17.6L819.7 805.1zM628.7 614.2c-4.9-4.9-12.8-4.9-17.6 0-4.9 4.9-4.9 12.8 0 17.6l17.5 17.5c2.4 2.4 5.6 3.7 8.8 3.7 3.2 0 6.4-1.2 8.8-3.7 4.9-4.9 4.9-12.8 0-17.6L628.7 614.2zM759.8 646.5c-6.3-2.8-13.7 0-16.5 6.3l-27.9 62.5h-43.1c-6.9 0-12.5 5.6-12.5 12.5 0 6.9 5.6 12.5 12.5 12.5h51.2c4.9 0 9.4-2.9 11.4-7.4l31.2-69.9C768.9 656.7 766 649.4 759.8 646.5z"/></svg>